{
  "accessors": [
    {
      "bufferView": 0,
      "componentType": 5126,
      "count": 32252,
      "max": [
        31.30091667175293,
        87.47450256347656,
        31.52014923095703
      ],
      "min": [
        -31.566970825195313,
        1.893592119216919,
        -31.34699821472168
      ],
      "name": "positions",
      "type": "VEC3"
    },
    {
      "bufferView": 1,
      "componentType": 5125,
      "count": 193500,
      "name": "pos_index",
      "type": "SCALAR"
    },
    {
      "bufferView": 2,
      "componentType": 5126,
      "count": 32252,
      "name": "normals",
      "type": "VEC3"
    }
  ],
  "asset": {
    "version": "2.0"
  },
  "bufferViews": [
    {
      "buffer": 0,
      "byteLength": 387024,
      "name": "positions",
      "target": 34962
    },
    {
      "buffer": 1,
      "byteLength": 774000,
      "name": "pos_index",
      "target": 34963
    },
    {
      "buffer": 2,
      "byteLength": 387024,
      "name": "normals",
      "target": 34962
    }
  ],
  "buffers": [
    {
      "byteLength": 387024,
      "name": "positions",
      "uri": "data:application/octet-stream;base64,"
    },
    {
      "byteLength": 774000,
      "name": "pos_index",
      "uri": "data:application/octet-stream;base64,"
    },
    {
      "byteLength": 387024,
      "name": "normals",
      "uri": "data:application/octet-stream;base64,"
    }
  ],
  "extensionsUsed": [
    "KHR_materials_transmission"
  ],
  "meshes": [
    {
      "name": "blob",
      "primitives": [
        {
          "attributes": {
            "NORMAL": 2,
            "POSITION": 0
          },
          "indices": 1,
          "mode": 4
        }
      ]
    }
  ],
  "nodes": [
    {
      "mesh": 0,
      "name": "blob"
    }
  ],
  "scene": 0,
  "scenes": [
    {
      "nodes": [
        0
      ]
    }
  ]
}
